<!DOCTYPE svg PUBLIC "-//W3C//DTD SVG 1.1//EN"
 "http://www.w3.org/Graphics/SVG/1.1/DTD/svg11.dtd"><svg xmlns="http://www.w3.org/2000/svg" viewBox="0 0 632 260"><g class="graph"><g class="node" transform="translate(4 256)"><ellipse cx="186" cy="-234" fill="#ccc" stroke="#000" stroke-width="1.5" rx="18" ry="18"/><text x="186" y="-228.6" font-family="Source Code Pro,Ubuntu Mono" font-size="18" text-anchor="middle">S</text></g><g class="node" transform="translate(4 256)"><ellipse cx="102" cy="-162" fill="#ccc" stroke="#000" stroke-width="1.5" rx="18" ry="18"/><text x="102" y="-156.6" font-family="Source Code Pro,Ubuntu Mono" font-size="18" text-anchor="middle">S</text></g><g stroke="#000" stroke-width=".75" class="edge"><path fill="none" d="M176.13 33.89l-50.402 43.2"/><path d="M127.294 79.205l-7.403 2.888 3.987-6.874 3.416 3.986z"/></g><g class="node" transform="translate(4 256)"><ellipse cx="186" cy="-162" fill="#fff" stroke="#000" stroke-width="1.5" rx="18" ry="18"/><text x="186" y="-156.6" font-family="Source Code Pro,Ubuntu Mono" font-size="18" text-anchor="middle">*</text></g><g stroke="#000" stroke-width=".75" class="edge"><path fill="none" d="M190 40.169v27.656"/><path d="M192.625 68.087l-2.625 7.5-2.625-7.5h5.25z"/></g><g class="node" transform="translate(4 256)"><ellipse cx="270" cy="-162" fill="#ccc" stroke="#000" stroke-width="1.5" rx="18" ry="18"/><text x="270" y="-156.6" font-family="Source Code Pro,Ubuntu Mono" font-size="18" text-anchor="middle">S</text></g><g stroke="#000" stroke-width=".75" class="edge"><path fill="none" d="M203.87 33.89l50.402 43.2"/><path d="M256.122 75.219l3.986 6.874-7.402-2.888 3.416-3.986z"/></g><g class="node" transform="translate(4 256)"><ellipse cx="438" cy="-234" fill="#ccc" stroke="#000" stroke-width="1.5" rx="18" ry="18"/><text x="438" y="-228.6" font-family="Source Code Pro,Ubuntu Mono" font-size="18" text-anchor="middle">S</text></g><g class="node" transform="translate(4 256)"><ellipse cx="354" cy="-162" fill="#ccc" stroke="#000" stroke-width="1.5" rx="18" ry="18"/><text x="354" y="-156.6" font-family="Source Code Pro,Ubuntu Mono" font-size="18" text-anchor="middle">S</text></g><g stroke="#000" stroke-width=".75" class="edge"><path fill="none" d="M428.13 33.89l-50.402 43.2"/><path d="M379.294 79.205l-7.402 2.888 3.986-6.874 3.416 3.986z"/></g><g class="node" transform="translate(4 256)"><ellipse cx="438" cy="-162" fill="#fff" stroke="#000" stroke-width="1.5" rx="18" ry="18"/><text x="438" y="-156.6" font-family="Source Code Pro,Ubuntu Mono" font-size="18" text-anchor="middle">+</text></g><g stroke="#000" stroke-width=".75" class="edge"><path fill="none" d="M442 40.169v27.656"/><path d="M444.625 68.087l-2.625 7.5-2.625-7.5h5.25z"/></g><g class="node" transform="translate(4 256)"><ellipse cx="522" cy="-162" fill="#ccc" stroke="#000" stroke-width="1.5" rx="18" ry="18"/><text x="522" y="-156.6" font-family="Source Code Pro,Ubuntu Mono" font-size="18" text-anchor="middle">S</text></g><g stroke="#000" stroke-width=".75" class="edge"><path fill="none" d="M455.87 33.89l50.402 43.2"/><path d="M508.122 75.219l3.986 6.874-7.402-2.888 3.416-3.986z"/></g><g class="node" transform="translate(4 256)"><ellipse cx="18" cy="-90" fill="#ccc" stroke="#000" stroke-width="1.5" rx="18" ry="18"/><text x="18" y="-84.6" font-family="Source Code Pro,Ubuntu Mono" font-size="18" text-anchor="middle">S</text></g><g stroke="#000" stroke-width=".75" class="edge"><path fill="none" d="M92.13 105.89l-50.402 43.2"/><path d="M43.294 151.205l-7.402 2.888 3.986-6.874 3.416 3.986z"/></g><g class="node" transform="translate(4 256)"><ellipse cx="102" cy="-90" fill="#fff" stroke="#000" stroke-width="1.5" rx="18" ry="18"/><text x="102" y="-84.6" font-family="Source Code Pro,Ubuntu Mono" font-size="18" text-anchor="middle">+</text></g><g stroke="#000" stroke-width=".75" class="edge"><path fill="none" d="M106 112.169v27.656"/><path d="M108.625 140.087l-2.625 7.5-2.625-7.5h5.25z"/></g><g class="node" transform="translate(4 256)"><ellipse cx="186" cy="-90" fill="#ccc" stroke="#000" stroke-width="1.5" rx="18" ry="18"/><text x="186" y="-84.6" font-family="Source Code Pro,Ubuntu Mono" font-size="18" text-anchor="middle">S</text></g><g stroke="#000" stroke-width=".75" class="edge"><path fill="none" d="M119.87 105.89l50.402 43.2"/><path d="M172.122 147.219l3.986 6.874-7.402-2.888 3.416-3.986z"/></g><g class="node" transform="translate(4 256)"><ellipse cx="270" cy="-90" fill="#fff" stroke="#000" stroke-width="1.5" rx="18" ry="18"/><text x="270" y="-84.6" font-family="Source Code Pro,Ubuntu Mono" font-size="18" text-anchor="middle">z</text></g><g stroke="#000" stroke-width=".75" class="edge"><path fill="none" d="M274 112.169v27.656"/><path d="M276.625 140.087l-2.625 7.5-2.625-7.5h5.25z"/></g><g class="node" transform="translate(4 256)"><ellipse cx="18" cy="-18" fill="#fff" stroke="#000" stroke-width="1.5" rx="18" ry="18"/><text x="18" y="-12.6" font-family="Source Code Pro,Ubuntu Mono" font-size="18" text-anchor="middle">x</text></g><g stroke="#000" stroke-width=".75" class="edge"><path fill="none" d="M22 184.169v27.656"/><path d="M24.625 212.087l-2.625 7.5-2.625-7.5h5.25z"/></g><g class="node" transform="translate(4 256)"><ellipse cx="186" cy="-18" fill="#fff" stroke="#000" stroke-width="1.5" rx="18" ry="18"/><text x="186" y="-12.6" font-family="Source Code Pro,Ubuntu Mono" font-size="18" text-anchor="middle">y</text></g><g stroke="#000" stroke-width=".75" class="edge"><path fill="none" d="M190 184.169v27.656"/><path d="M192.625 212.087l-2.625 7.5-2.625-7.5h5.25z"/></g><g class="node" transform="translate(4 256)"><ellipse cx="354" cy="-90" fill="#fff" stroke="#000" stroke-width="1.5" rx="18" ry="18"/><text x="354" y="-84.6" font-family="Source Code Pro,Ubuntu Mono" font-size="18" text-anchor="middle">x</text></g><g stroke="#000" stroke-width=".75" class="edge"><path fill="none" d="M358 112.169v27.656"/><path d="M360.625 140.087l-2.625 7.5-2.625-7.5h5.25z"/></g><g class="node" transform="translate(4 256)"><ellipse cx="438" cy="-90" fill="#ccc" stroke="#000" stroke-width="1.5" rx="18" ry="18"/><text x="438" y="-84.6" font-family="Source Code Pro,Ubuntu Mono" font-size="18" text-anchor="middle">S</text></g><g stroke="#000" stroke-width=".75" class="edge"><path fill="none" d="M512.13 105.89l-50.402 43.2"/><path d="M463.294 151.205l-7.402 2.888 3.986-6.874 3.416 3.986z"/></g><g class="node" transform="translate(4 256)"><ellipse cx="522" cy="-90" fill="#fff" stroke="#000" stroke-width="1.5" rx="18" ry="18"/><text x="522" y="-84.6" font-family="Source Code Pro,Ubuntu Mono" font-size="18" text-anchor="middle">*</text></g><g stroke="#000" stroke-width=".75" class="edge"><path fill="none" d="M526 112.169v27.656"/><path d="M528.625 140.087l-2.625 7.5-2.625-7.5h5.25z"/></g><g class="node" transform="translate(4 256)"><ellipse cx="606" cy="-90" fill="#ccc" stroke="#000" stroke-width="1.5" rx="18" ry="18"/><text x="606" y="-84.6" font-family="Source Code Pro,Ubuntu Mono" font-size="18" text-anchor="middle">S</text></g><g stroke="#000" stroke-width=".75" class="edge"><path fill="none" d="M539.87 105.89l50.402 43.2"/><path d="M592.122 147.219l3.987 6.874-7.403-2.888 3.416-3.986z"/></g><g class="node" transform="translate(4 256)"><ellipse cx="438" cy="-18" fill="#fff" stroke="#000" stroke-width="1.5" rx="18" ry="18"/><text x="438" y="-12.6" font-family="Source Code Pro,Ubuntu Mono" font-size="18" text-anchor="middle">y</text></g><g stroke="#000" stroke-width=".75" class="edge"><path fill="none" d="M442 184.169v27.656"/><path d="M444.625 212.087l-2.625 7.5-2.625-7.5h5.25z"/></g><g class="node" transform="translate(4 256)"><ellipse cx="606" cy="-18" fill="#fff" stroke="#000" stroke-width="1.5" rx="18" ry="18"/><text x="606" y="-12.6" font-family="Source Code Pro,Ubuntu Mono" font-size="18" text-anchor="middle">z</text></g><g stroke="#000" stroke-width=".75" class="edge"><path fill="none" d="M610 184.169v27.656"/><path d="M612.625 212.087l-2.625 7.5-2.625-7.5h5.25z"/></g></g></svg>
